# xmcd
#
# Track frame offsets:
#	150
#	10462
#	24337
#	36265
#	46445
#	55975
#	67435
#	77532
#	90092
#	102170
#	119797
#	132302
#	150580
#	173905
#	183557
#	196352
#	211810
#	226842
#
# Disc length: 3204 seconds
# Revision: 3
# Processed by: cddbd v1.5.2PL0 Copyright (c) Steve Scherf et al.
# Submitted via: dBpowerAMP V12.0
#
DISCID=f30c8212
DTITLE=Various Artist - 18 Truck Driving Classics
DYEAR=1963
DGENRE=Country
TTITLE0=Dave Dudley - Six Days on the Road [Greene and Montgomery 1961]
TTITLE1=Johnny Paycheck - Drinking and Driving [Gentry]
TTITLE2=Del Reeves - Girl on the Billboard [Haynes and Mills 1964]
TTITLE3=Warner Mack - The Bridge Washed Out [Louis, Melshee and Smith 1965]
TTITLE4=Duane Eddy - Forty Miles of Bad Road [Eddy and Casey 1959]
TTITLE5=The Willis Brothers - Give Me Forty Acres (To Turn This Rig Around) [Green 1964]
TTITLE6=Wilma Lee Cooper - Wreck on the Highway [Dixon 1937]
TTITLE7=Red Simpson - Roll, Truck, Roll [Collins 1965]
TTITLE8=Red Steagall - Truck Drivin' Man [Fell 1954]
TTITLE9=Ferlin Husky - Convoy [Davis and Fries (McCall) 1975]
TTITLE10=Porter Wagoner - The Carroll County Accident [Ferguson 1968]
TTITLE11=Johnny Cash - One Piece at a Time [Kemp 1976]
TTITLE12=Ferlin Husky - Teddy Bear [1976]
TTITLE13=Dave Dudley - Truck Drivin' Son of a Gun [Dean and King 1965]
TTITLE14=Claude King - Wolverton Mountain [King and Kilgore 1962]
TTITLE15=Red Simpson - I'm a Truck [Stanton 1971]
TTITLE16=Roger Miller - Me and Bobby McGee [Kristofferson and Foster 1969]
TTITLE17=The Kendalls - Thank God for the Radio [Barnes and Jones 1983]
EXTD=
EXTT0=
EXTT1=
EXTT2=
EXTT3=
EXTT4=
EXTT5=
EXTT6=
EXTT7=
EXTT8=
EXTT9=
EXTT10=
EXTT11=
EXTT12=
EXTT13=
EXTT14=
EXTT15=
EXTT16=
EXTT17=
PLAYORDER=
